<?xml version="1.0" encoding="UTF-8"?>
<svg version="1.1" xmlns="http://www.w3.org/2000/svg" width="512" height="512">
<path d="M0 0 C1.58955757 -0.00461452 3.17911086 -0.01097113 4.7686553 -0.01890898 C9.11647884 -0.03554985 13.4639495 -0.02737992 17.81177402 -0.0149641 C22.50851713 -0.00589439 27.20520059 -0.01989286 31.90193176 -0.03088379 C41.09486657 -0.0486531 50.2876706 -0.04483609 59.48061049 -0.03323323 C66.95312358 -0.02419294 74.42560007 -0.02297749 81.89811707 -0.02732849 C82.96238901 -0.02794142 84.02666096 -0.02855436 85.12318358 -0.02918586 C87.28535594 -0.03046479 89.44752828 -0.03176164 91.60970062 -0.03307623 C111.87564411 -0.04447737 132.14151519 -0.03137561 152.4074468 -0.00987476 C169.7896118 0.00799579 187.17166994 0.00489155 204.55383301 -0.0135498 C224.74816919 -0.03496472 244.94244194 -0.04337878 265.13678789 -0.03110075 C267.29092438 -0.02982658 269.44506088 -0.02856909 271.59919739 -0.02732849 C273.18893557 -0.02640284 273.18893557 -0.02640284 274.81078967 -0.02545848 C282.27273496 -0.02200745 289.73463994 -0.02782862 297.19657898 -0.0372467 C306.29248561 -0.04847494 315.38825419 -0.04540924 324.48414505 -0.02412373 C329.12339109 -0.01362447 333.76240713 -0.00947233 338.40165138 -0.02272034 C342.65174104 -0.03467334 346.90138831 -0.02803398 351.15143806 -0.00681013 C352.68562282 -0.00235636 354.21984525 -0.00458272 355.75400561 -0.01431328 C366.67384733 -0.07823947 376.32547365 0.93414793 384.64709473 8.66418457 C390.63531021 15.55793508 393.36897825 21.94962486 393.3828783 30.98488045 C393.38523053 31.63652373 393.38758276 32.28816701 393.39000627 32.95955706 C393.39668549 35.15230482 393.39623838 37.34499317 393.39582825 39.53775024 C393.39912754 41.1221246 393.40285325 42.70649811 393.40696973 44.29087055 C393.41699035 48.6521342 393.42070662 53.01338409 393.42335904 57.37465763 C393.42726189 62.07557828 393.43684023 66.77648804 393.4455719 71.47740173 C393.46533662 82.83368408 393.47540244 94.18996732 393.48429969 105.54626256 C393.48868249 110.89355262 393.49404931 116.24084168 393.49928856 121.58813095 C393.51630068 139.3626313 393.53079509 157.13713102 393.5380373 174.91163826 C393.53994721 179.5244662 393.54186754 184.13729414 393.54382324 188.75012207 C393.54430698 189.89662365 393.54479072 191.04312522 393.54528912 192.22436927 C393.55359029 210.79895392 393.57892875 229.37347419 393.61140392 247.94803073 C393.64447016 267.01603619 393.66248566 286.08400893 393.66568154 305.15204322 C393.66784701 315.85889101 393.67660121 326.5656449 393.70214272 337.27246475 C393.72384373 346.3904555 393.73190305 355.50832956 393.72217593 364.62634321 C393.71762955 369.27771314 393.71953722 373.92884227 393.73893738 378.58017921 C393.75655754 382.8415875 393.7555807 387.10257908 393.74004009 391.36399172 C393.73766227 392.90240297 393.74199661 394.44084299 393.75386874 395.97921027 C393.83394727 407.04449977 392.79353131 416.58046838 384.95178223 424.97668457 C378.39869268 430.86845316 371.36857773 433.75448048 362.52561569 433.76520348 C361.87166472 433.76870955 361.21771375 433.77221563 360.54394609 433.77582794 C358.3553228 433.78512278 356.16696673 433.78022368 353.97833252 433.77536011 C352.39223077 433.77909734 350.80613087 433.78369916 349.22003388 433.78909075 C344.86326907 433.8013272 340.506581 433.80105952 336.14980292 433.798702 C331.45027466 433.798294 326.75077106 433.80933145 322.05125427 433.81881714 C312.84444053 433.83543183 303.63765239 433.8409269 294.43082491 433.84204189 C286.94678168 433.84299218 279.46274691 433.8471015 271.97870636 433.85344315 C250.75985916 433.87105711 229.54103219 433.88028181 208.32217762 433.8787822 C207.17820398 433.87870229 206.03423033 433.87862237 204.85559082 433.87854004 C203.71022025 433.87845828 202.56484967 433.87837652 201.3847709 433.87829228 C182.82324241 433.87747941 164.26179507 433.89661683 145.70029005 433.92481677 C126.64125688 433.95354408 107.58226328 433.96735714 88.5232079 433.96562922 C77.82310259 433.96496525 67.12308234 433.97046063 56.42299652 433.99198532 C47.31236731 434.01019512 38.20186173 434.01454611 29.0912222 434.00096647 C24.44389358 433.99443573 19.79680215 433.99432347 15.14949608 434.01167297 C10.89186068 434.02740409 6.63465054 434.02453974 2.37702551 434.00710471 C0.8400231 434.00403489 -0.69701106 434.00766657 -2.23397604 434.01882486 C-13.90308111 434.09790459 -23.22146161 432.74728651 -31.99353027 424.50793457 C-37.72181503 417.99041947 -39.8700748 411.56469534 -39.89115047 403.02095795 C-39.8941019 402.36822549 -39.89705332 401.71549302 -39.90009418 401.04298079 C-39.9087853 398.84651266 -39.91036583 396.6500972 -39.91197205 394.45361328 C-39.91670303 392.86653916 -39.92185395 391.27946625 -39.92738968 389.69239473 C-39.94130032 385.32359475 -39.94888066 380.95480311 -39.95536268 376.58598661 C-39.96173305 372.84052595 -39.97180326 369.09507897 -39.98192333 365.34962684 C-40.01525054 353.00889836 -40.03676962 340.66816156 -40.05512318 328.32740283 C-40.05991838 325.11384035 -40.06490168 321.90027821 -40.06992841 318.68671608 C-40.1009003 298.73005205 -40.12758515 278.77338512 -40.14434719 258.8167038 C-40.14829668 254.1939239 -40.15229967 249.57114405 -40.15637207 244.94836426 C-40.15738043 243.79939669 -40.15838879 242.65042912 -40.15942771 241.46664435 C-40.17643134 222.85780976 -40.21753704 204.24910824 -40.26839506 185.6403386 C-40.3201835 166.53390475 -40.34929109 147.42753931 -40.35654408 128.32103586 C-40.36120481 117.59394825 -40.3759403 106.86707851 -40.41628838 96.14006042 C-40.45061275 87.00342777 -40.4645179 77.86705232 -40.45186424 68.7303589 C-40.446043 64.07052269 -40.44986349 59.41123027 -40.48003387 54.75147629 C-40.50746437 50.4799295 -40.50684708 46.20931107 -40.48452342 41.93774301 C-40.48130992 40.39794157 -40.48811362 38.8580772 -40.50632065 37.31838006 C-40.62508337 26.62084675 -39.0513592 17.77985815 -31.94266409 9.36758375 C-22.72495431 0.53766656 -12.15297448 -0.07708141 0 0 Z M26.93615723 75.32043457 C20.37515895 84.91520921 19.12560478 94.12689795 20.24865723 105.50793457 C22.3141868 114.686708 28.02515089 122.52023014 35.68615723 127.88293457 C45.11328463 133.63157138 54.83634509 135.88712179 65.74084473 133.28918457 C75.36552714 130.29084114 82.87158671 125.23938976 88.04162598 116.46496582 C93.36998477 106.07403334 95.11910955 96.87513764 91.74865723 85.38293457 C87.89414214 75.08625792 81.18785265 68.08479812 71.24865723 63.50793457 C54.75177462 56.74986584 38.13529941 61.49605706 26.93615723 75.32043457 Z M196.94006348 183.33215332 C195.16057838 185.52598685 195.16057838 185.52598685 193.65100098 188.21496582 C192.24865723 190.50793457 192.24865723 190.50793457 190.24865723 191.50793457 C190.24865723 182.26793457 190.24865723 173.02793457 190.24865723 163.50793457 C170.11865723 163.50793457 149.98865723 163.50793457 129.24865723 163.50793457 C129.24865723 231.15793457 129.24865723 298.80793457 129.24865723 368.50793457 C150.03865723 368.50793457 170.82865723 368.50793457 192.24865723 368.50793457 C192.32213379 357.00111816 192.32213379 357.00111816 192.39709473 345.26184082 C192.43252332 340.3718545 192.46850746 335.48188466 192.50646973 330.59191895 C192.56653553 322.84804779 192.62465971 315.10419943 192.67053223 307.36022949 C192.70768808 301.10963505 192.75412593 294.85916937 192.80672073 288.60868645 C192.82510507 286.23638123 192.84027035 283.86404858 192.85200119 281.49170113 C193.0820098 236.54202091 193.0820098 236.54202091 205.24865723 222.50793457 C213.09361982 215.47209368 224.26133329 213.9618791 234.43615723 214.29309082 C242.59251686 214.91614607 249.13271282 216.79511268 255.24865723 222.50793457 C266.82557949 237.43938987 264.71797839 258.48090878 264.76037598 276.22277832 C264.77724653 278.89178686 264.79525809 281.56076359 264.81477356 284.22975159 C264.85813702 290.49785223 264.88686775 296.76592749 264.91009694 303.03413159 C264.93999109 310.88420556 264.98985338 318.73413798 265.03967285 326.58410645 C265.12827517 340.5586722 265.18711306 354.53316539 265.24865723 368.50793457 C286.03865723 368.50793457 306.82865723 368.50793457 328.24865723 368.50793457 C328.33622524 345.02650427 328.33622524 345.02650427 328.3951416 321.54504395 C328.41286289 311.95344161 328.43356305 302.36191899 328.47497559 292.77038574 C328.50513689 285.7813371 328.52429271 278.79235384 328.53092271 271.80324191 C328.53479038 268.11198388 328.54369878 264.4209127 328.5658474 260.72971535 C328.73508643 231.34386123 328.50623022 198.42882133 306.74865723 175.78918457 C291.44714892 161.82655824 272.86638987 158.1382169 252.74865723 158.19543457 C251.61557129 158.17932129 250.48248535 158.16320801 249.31506348 158.14660645 C228.03416524 158.13441807 210.81152436 167.49146626 196.94006348 183.33215332 Z M25.24865723 163.50793457 C25.24865723 231.15793457 25.24865723 298.80793457 25.24865723 368.50793457 C46.03865723 368.50793457 66.82865723 368.50793457 88.24865723 368.50793457 C88.24865723 300.85793457 88.24865723 233.20793457 88.24865723 163.50793457 C67.45865723 163.50793457 46.66865723 163.50793457 25.24865723 163.50793457 Z " fill="#000000" transform="translate(79.7513427734375,40.4920654296875)"/>
</svg>
